<svg xmlns="http://www.w3.org/2000/svg" width="706" height="312" viewBox="0 0 706 312">
<rect width="100%" height="100%" fill="#ffffff"/>
<text x="52" y="22" font-size="16" font-family="Arial, sans-serif" font-weight="700" fill="#222222">Evaluation with W, n=1071</text>
<line x1="52" y1="38" x2="52" y2="268" stroke="#222222" stroke-width="1"/>
<line x1="52" y1="268" x2="682" y2="268" stroke="#222222" stroke-width="1"/>
<text x="8" y="48" font-size="11" font-family="Arial, sans-serif" fill="#555555">bits</text>
<line x1="48" y1="268.00" x2="52" y2="268.00" stroke="#555555" stroke-width="1"/>
<text x="24" y="272.00" font-size="10" font-family="Arial, sans-serif" fill="#555555">0</text>
<line x1="48" y1="214.78" x2="52" y2="214.78" stroke="#555555" stroke-width="1"/>
<text x="24" y="218.78" font-size="10" font-family="Arial, sans-serif" fill="#555555">1</text>
<line x1="48" y1="161.57" x2="52" y2="161.57" stroke="#555555" stroke-width="1"/>
<text x="24" y="165.57" font-size="10" font-family="Arial, sans-serif" fill="#555555">2</text>
<line x1="48" y1="108.35" x2="52" y2="108.35" stroke="#555555" stroke-width="1"/>
<text x="24" y="112.35" font-size="10" font-family="Arial, sans-serif" fill="#555555">3</text>
<line x1="48" y1="55.13" x2="52" y2="55.13" stroke="#555555" stroke-width="1"/>
<text x="24" y="59.13" font-size="10" font-family="Arial, sans-serif" fill="#555555">4</text>
<rect x="63.00" y="266.88" width="48" height="1.12" fill="#1a9850" opacity="0.9"/>
<rect x="63.00" y="265.62" width="48" height="1.27" fill="#222222" opacity="0.9"/>
<rect x="63.00" y="264.31" width="48" height="1.31" fill="#222222" opacity="0.9"/>
<rect x="63.00" y="262.92" width="48" height="1.39" fill="#4575b4" opacity="0.9"/>
<rect x="63.00" y="261.18" width="48" height="1.74" fill="#4575b4" opacity="0.9"/>
<text x="87.00" y="292" text-anchor="middle" font-size="12" font-family="Arial, sans-serif" fill="#222222">P1</text>
<rect x="133.00" y="266.98" width="48" height="1.02" fill="#d73027" opacity="0.9"/>
<rect x="133.00" y="265.84" width="48" height="1.14" fill="#984ea3" opacity="0.9"/>
<rect x="133.00" y="264.44" width="48" height="1.40" fill="#1a9850" opacity="0.9"/>
<rect x="133.00" y="262.60" width="48" height="1.84" fill="#222222" opacity="0.9"/>
<rect x="133.00" y="260.64" width="48" height="1.97" fill="#222222" opacity="0.9"/>
<rect x="133.00" y="258.45" width="48" height="2.19" fill="#222222" opacity="0.9"/>
<rect x="133.00" y="255.49" width="48" height="2.95" fill="#1a9850" opacity="0.9"/>
<rect x="133.00" y="251.46" width="48" height="4.03" fill="#222222" opacity="0.9"/>
<rect x="133.00" y="247.37" width="48" height="4.09" fill="#1a9850" opacity="0.9"/>
<rect x="133.00" y="239.53" width="48" height="7.84" fill="#222222" opacity="0.9"/>
<text x="157.00" y="292" text-anchor="middle" font-size="12" font-family="Arial, sans-serif" fill="#222222">P2</text>
<rect x="203.00" y="266.94" width="48" height="1.06" fill="#4575b4" opacity="0.9"/>
<rect x="203.00" y="265.81" width="48" height="1.13" fill="#222222" opacity="0.9"/>
<rect x="203.00" y="264.69" width="48" height="1.13" fill="#1a9850" opacity="0.9"/>
<rect x="203.00" y="263.53" width="48" height="1.16" fill="#222222" opacity="0.9"/>
<rect x="203.00" y="262.23" width="48" height="1.30" fill="#222222" opacity="0.9"/>
<rect x="203.00" y="260.86" width="48" height="1.36" fill="#222222" opacity="0.9"/>
<rect x="203.00" y="257.79" width="48" height="3.08" fill="#222222" opacity="0.9"/>
<text x="227.00" y="292" text-anchor="middle" font-size="12" font-family="Arial, sans-serif" fill="#222222">P3</text>
<rect x="273.00" y="266.40" width="48" height="1.60" fill="#222222" opacity="0.9"/>
<text x="297.00" y="292" text-anchor="middle" font-size="12" font-family="Arial, sans-serif" fill="#222222">P4</text>
<rect x="343.00" y="266.91" width="48" height="1.09" fill="#777777" opacity="0.9"/>
<rect x="343.00" y="264.11" width="48" height="2.80" fill="#222222" opacity="0.9"/>
<text x="367.00" y="292" text-anchor="middle" font-size="12" font-family="Arial, sans-serif" fill="#222222">P5</text>
<rect x="413.00" y="266.80" width="48" height="1.20" fill="#222222" opacity="0.9"/>
<text x="437.00" y="292" text-anchor="middle" font-size="12" font-family="Arial, sans-serif" fill="#222222">P6</text>
<rect x="483.00" y="266.97" width="48" height="1.03" fill="#1a9850" opacity="0.9"/>
<rect x="483.00" y="265.87" width="48" height="1.10" fill="#1a9850" opacity="0.9"/>
<rect x="483.00" y="263.76" width="48" height="2.11" fill="#222222" opacity="0.9"/>
<rect x="483.00" y="261.48" width="48" height="2.29" fill="#222222" opacity="0.9"/>
<text x="507.00" y="292" text-anchor="middle" font-size="12" font-family="Arial, sans-serif" fill="#222222">P7</text>
<text x="577.00" y="292" text-anchor="middle" font-size="12" font-family="Arial, sans-serif" fill="#222222">P8</text>
<rect x="623.00" y="266.88" width="48" height="1.12" fill="#222222" opacity="0.9"/>
<rect x="623.00" y="265.36" width="48" height="1.51" fill="#4575b4" opacity="0.9"/>
<rect x="623.00" y="262.95" width="48" height="2.41" fill="#222222" opacity="0.9"/>
<rect x="623.00" y="259.92" width="48" height="3.03" fill="#222222" opacity="0.9"/>
<rect x="623.00" y="256.84" width="48" height="3.08" fill="#222222" opacity="0.9"/>
<rect x="623.00" y="251.85" width="48" height="4.99" fill="#222222" opacity="0.9"/>
<rect x="623.00" y="245.79" width="48" height="6.06" fill="#4575b4" opacity="0.9"/>
<rect x="623.00" y="239.73" width="48" height="6.06" fill="#222222" opacity="0.9"/>
<rect x="623.00" y="232.72" width="48" height="7.01" fill="#222222" opacity="0.9"/>
<rect x="623.00" y="212.03" width="48" height="20.69" fill="#4575b4" opacity="0.9"/>
<text x="647.00" y="226.38" text-anchor="middle" font-size="11" font-family="Arial, sans-serif" font-weight="700" fill="#ffffff">K</text>
<text x="647.00" y="292" text-anchor="middle" font-size="12" font-family="Arial, sans-serif" fill="#222222">P9</text>
</svg>